<svg width="168" height="27" viewBox="0 0 168 27" fill="none" xmlns="http://www.w3.org/2000/svg">
<path d="M1.208 26C0.930667 26 0.696 25.9147 0.504 25.744C0.333333 25.552 0.248 25.3173 0.248 25.04V1.968C0.248 1.69066 0.333333 1.46667 0.504 1.296C0.696 1.104 0.930667 1.008 1.208 1.008H16.6C16.856 1.008 17.08 1.104 17.272 1.296C17.464 1.46667 17.56 1.69066 17.56 1.968C17.56 2.224 17.464 2.448 17.272 2.64C17.08 2.832 16.856 2.928 16.6 2.928H2.168V12.528H12.76C13.0373 12.528 13.2613 12.624 13.432 12.816C13.624 12.9867 13.72 13.2107 13.72 13.488C13.72 13.7653 13.624 14 13.432 14.192C13.2613 14.384 13.0373 14.48 12.76 14.48H2.168V25.04C2.168 25.3173 2.072 25.552 1.88 25.744C1.70933 25.9147 1.48533 26 1.208 26ZM33.752 26.32C31.9173 26.32 30.2213 26 28.664 25.36C27.1067 24.72 25.7413 23.824 24.568 22.672C23.416 21.4987 22.52 20.1333 21.88 18.576C21.24 17.0187 20.92 15.3227 20.92 13.488C20.92 11.6533 21.24 9.968 21.88 8.432C22.52 6.87467 23.416 5.52 24.568 4.368C25.7413 3.19467 27.1067 2.288 28.664 1.648C30.2213 1.008 31.9173 0.688 33.752 0.688C35.5867 0.688 37.272 1.008 38.808 1.648C40.3653 2.288 41.72 3.19467 42.872 4.368C44.0453 5.52 44.952 6.87467 45.592 8.432C46.232 9.968 46.552 11.6533 46.552 13.488C46.552 15.3227 46.232 17.0187 45.592 18.576C44.952 20.1333 44.0453 21.4987 42.872 22.672C41.72 23.824 40.3653 24.72 38.808 25.36C37.272 26 35.5867 26.32 33.752 26.32ZM33.752 24.4C35.288 24.4 36.7173 24.1333 38.04 23.6C39.3627 23.0453 40.5147 22.2773 41.496 21.296C42.4987 20.2933 43.2667 19.1307 43.8 17.808C44.3547 16.4853 44.632 15.0453 44.632 13.488C44.632 11.952 44.3547 10.5227 43.8 9.2C43.2667 7.87733 42.4987 6.72533 41.496 5.744C40.5147 4.74133 39.3627 3.97333 38.04 3.44C36.7173 2.88533 35.288 2.608 33.752 2.608C32.1947 2.608 30.7547 2.88533 29.432 3.44C28.1093 3.97333 26.9467 4.74133 25.944 5.744C24.9627 6.72533 24.1947 7.87733 23.64 9.2C23.1067 10.5227 22.84 11.952 22.84 13.488C22.84 15.0453 23.1067 16.4853 23.64 17.808C24.1947 19.1307 24.9627 20.2933 25.944 21.296C26.9467 22.2773 28.1093 23.0453 29.432 23.6C30.7547 24.1333 32.1947 24.4 33.752 24.4ZM62.2758 26.32C60.5691 26.32 58.9584 25.9893 57.4438 25.328C55.9504 24.6453 54.6278 23.7173 53.4758 22.544C52.3238 21.3493 51.4171 19.984 50.7558 18.448C50.0944 16.8907 49.7638 15.2373 49.7638 13.488C49.7638 11.76 50.0838 10.128 50.7238 8.592C51.3638 7.03467 52.2491 5.66933 53.3798 4.496C54.5318 3.30133 55.8651 2.37333 57.3798 1.712C58.8944 1.02933 60.5264 0.688 62.2758 0.688C63.7478 0.688 65.1451 0.922666 66.4678 1.392C67.7904 1.86133 69.0278 2.576 70.1798 3.536C70.3718 3.68533 70.4678 3.89867 70.4678 4.176C70.4678 4.432 70.3824 4.66667 70.2118 4.88C70.0411 5.072 69.8064 5.168 69.5078 5.168C69.4224 5.168 69.3371 5.15733 69.2518 5.136C69.1664 5.09333 69.0811 5.05067 68.9958 5.008C68.9104 4.944 68.8144 4.86933 68.7078 4.784C67.8544 4.016 66.8838 3.46133 65.7958 3.12C64.7078 2.77867 63.5344 2.608 62.2758 2.608C60.8464 2.608 59.4918 2.90667 58.2118 3.504C56.9317 4.08 55.8011 4.88 54.8198 5.904C53.8384 6.90667 53.0704 8.05867 52.5158 9.36C51.9611 10.6613 51.6838 12.0373 51.6838 13.488C51.6838 14.9813 51.9611 16.3893 52.5158 17.712C53.0704 19.0347 53.8278 20.1973 54.7878 21.2C55.7691 22.2027 56.8998 22.992 58.1798 23.568C59.4598 24.1227 60.8251 24.4 62.2758 24.4C63.5344 24.4 64.7078 24.208 65.7958 23.824C66.9051 23.44 67.9398 22.8533 68.8998 22.064C69.0704 21.9147 69.2731 21.8613 69.5078 21.904C69.7424 21.9467 69.9451 22.0533 70.1158 22.224C70.2864 22.3947 70.3718 22.6187 70.3718 22.896C70.3718 23.024 70.3611 23.1413 70.3398 23.248C70.3184 23.3547 70.2544 23.4613 70.1478 23.568C69.1024 24.6133 67.8864 25.3387 66.4998 25.744C65.1344 26.128 63.7264 26.32 62.2758 26.32ZM85.175 26.512C83.2977 26.512 81.6337 26.1493 80.183 25.424C78.7537 24.6773 77.623 23.6533 76.791 22.352C75.9803 21.0293 75.575 19.5253 75.575 17.84V1.968C75.575 1.66933 75.6603 1.43467 75.831 1.264C76.023 1.09333 76.2577 1.008 76.535 1.008C76.8337 1.008 77.0683 1.09333 77.239 1.264C77.4097 1.43467 77.495 1.66933 77.495 1.968V17.84C77.495 19.1627 77.815 20.336 78.455 21.36C79.1163 22.3627 80.023 23.152 81.175 23.728C82.3483 24.304 83.6817 24.592 85.175 24.592C86.6897 24.592 88.023 24.304 89.175 23.728C90.327 23.152 91.2337 22.3627 91.895 21.36C92.5563 20.336 92.887 19.1627 92.887 17.84V1.968C92.887 1.66933 92.9723 1.43467 93.143 1.264C93.335 1.09333 93.5697 1.008 93.847 1.008C94.1457 1.008 94.3803 1.09333 94.551 1.264C94.7217 1.43467 94.807 1.66933 94.807 1.968V17.84C94.807 19.5253 94.391 21.0293 93.559 22.352C92.7483 23.6533 91.6177 24.6773 90.167 25.424C88.7163 26.1493 87.0523 26.512 85.175 26.512ZM108.688 26.32C107.344 26.32 106.107 26.1387 104.976 25.776C103.867 25.392 102.907 24.8587 102.096 24.176C101.285 23.472 100.645 22.6507 100.176 21.712C100.048 21.456 100.037 21.2107 100.144 20.976C100.272 20.7413 100.475 20.5813 100.752 20.496C100.987 20.4107 101.221 20.4213 101.456 20.528C101.691 20.6347 101.872 20.8053 102 21.04C102.384 21.7227 102.885 22.32 103.504 22.832C104.144 23.344 104.891 23.7387 105.744 24.016C106.619 24.272 107.6 24.4 108.688 24.4C109.904 24.4 110.949 24.1973 111.824 23.792C112.72 23.3867 113.403 22.7893 113.872 22C114.363 21.2107 114.608 20.2507 114.608 19.12C114.608 17.712 114.096 16.528 113.072 15.568C112.069 14.5867 110.533 13.9573 108.464 13.68C106.075 13.3387 104.208 12.5707 102.864 11.376C101.52 10.16 100.848 8.688 100.848 6.96C100.848 5.70133 101.157 4.60267 101.776 3.664C102.416 2.72533 103.301 2 104.432 1.488C105.584 0.954666 106.907 0.688 108.4 0.688C109.509 0.688 110.533 0.869333 111.472 1.232C112.411 1.59467 113.232 2.07467 113.936 2.672C114.64 3.248 115.184 3.856 115.568 4.496C115.717 4.73067 115.749 4.98667 115.664 5.264C115.6 5.52 115.429 5.70133 115.152 5.808C114.917 5.89333 114.683 5.904 114.448 5.84C114.213 5.75467 114.021 5.60533 113.872 5.392C113.573 4.944 113.189 4.50667 112.72 4.08C112.251 3.65333 111.664 3.30133 110.96 3.024C110.256 2.74667 109.403 2.608 108.4 2.608C106.651 2.608 105.275 3.00267 104.272 3.792C103.269 4.58133 102.768 5.70133 102.768 7.152C102.768 7.92 102.971 8.624 103.376 9.264C103.803 9.88267 104.464 10.416 105.36 10.864C106.256 11.312 107.397 11.6533 108.784 11.888C111.536 12.3573 113.509 13.2107 114.704 14.448C115.92 15.664 116.528 17.2213 116.528 19.12C116.528 20.2293 116.336 21.232 115.952 22.128C115.589 23.024 115.056 23.7813 114.352 24.4C113.669 25.0187 112.848 25.4987 111.888 25.84C110.928 26.16 109.861 26.32 108.688 26.32Z" fill="#C77E98"/>
<path d="M128.77 26.128C127.212 26.128 125.815 25.744 124.578 24.976C123.34 24.1867 122.359 23.1307 121.634 21.808C120.93 20.464 120.578 18.9493 120.578 17.264C120.578 15.5787 120.962 14.064 121.73 12.72C122.519 11.376 123.575 10.32 124.898 9.552C126.242 8.76267 127.746 8.368 129.41 8.368C131.074 8.368 132.567 8.76267 133.89 9.552C135.212 10.32 136.258 11.376 137.026 12.72C137.815 14.064 138.21 15.5787 138.21 17.264H136.962C136.962 18.9493 136.599 20.464 135.874 21.808C135.17 23.1307 134.199 24.1867 132.962 24.976C131.724 25.744 130.327 26.128 128.77 26.128ZM129.41 23.248C130.498 23.248 131.468 22.992 132.322 22.48C133.175 21.9467 133.847 21.232 134.338 20.336C134.828 19.4187 135.074 18.3947 135.074 17.264C135.074 16.112 134.828 15.088 134.338 14.192C133.847 13.2747 133.175 12.56 132.322 12.048C131.468 11.5147 130.498 11.248 129.41 11.248C128.343 11.248 127.372 11.5147 126.498 12.048C125.644 12.56 124.962 13.2747 124.45 14.192C123.959 15.088 123.714 16.112 123.714 17.264C123.714 18.3947 123.959 19.4187 124.45 20.336C124.962 21.232 125.644 21.9467 126.498 22.48C127.372 22.992 128.343 23.248 129.41 23.248ZM136.578 26.032C136.108 26.032 135.714 25.8827 135.394 25.584C135.095 25.264 134.946 24.8693 134.946 24.4V19.504L135.554 16.112L138.21 17.264V24.4C138.21 24.8693 138.05 25.264 137.73 25.584C137.431 25.8827 137.047 26.032 136.578 26.032ZM144.636 15.056C144.636 13.776 144.945 12.6347 145.564 11.632C146.204 10.608 147.057 9.79733 148.124 9.2C149.19 8.60267 150.364 8.304 151.644 8.304C152.924 8.304 153.873 8.51733 154.492 8.944C155.132 9.34933 155.377 9.84 155.228 10.416C155.164 10.7147 155.036 10.9493 154.844 11.12C154.673 11.2693 154.47 11.3653 154.236 11.408C154.001 11.4507 153.745 11.44 153.468 11.376C152.102 11.0987 150.876 11.0773 149.788 11.312C148.7 11.5467 147.836 11.984 147.196 12.624C146.577 13.264 146.268 14.0747 146.268 15.056H144.636ZM144.668 26C144.156 26 143.761 25.872 143.484 25.616C143.206 25.3387 143.068 24.9333 143.068 24.4V10.096C143.068 9.584 143.206 9.18933 143.484 8.912C143.761 8.63467 144.156 8.496 144.668 8.496C145.201 8.496 145.596 8.63467 145.852 8.912C146.129 9.168 146.268 9.56267 146.268 10.096V24.4C146.268 24.912 146.129 25.3067 145.852 25.584C145.596 25.8613 145.201 26 144.668 26ZM164.998 26C163.931 26 162.971 25.7333 162.118 25.2C161.265 24.6453 160.593 23.8987 160.102 22.96C159.611 22.0213 159.366 20.9653 159.366 19.792V4.528C159.366 4.05867 159.515 3.67467 159.814 3.376C160.113 3.07733 160.497 2.928 160.966 2.928C161.435 2.928 161.819 3.07733 162.118 3.376C162.417 3.67467 162.566 4.05867 162.566 4.528V19.792C162.566 20.6453 162.801 21.36 163.27 21.936C163.739 22.512 164.315 22.8 164.998 22.8H166.086C166.47 22.8 166.79 22.9493 167.046 23.248C167.323 23.5467 167.462 23.9307 167.462 24.4C167.462 24.8693 167.281 25.2533 166.918 25.552C166.577 25.8507 166.129 26 165.574 26H164.998ZM157.894 11.888C157.446 11.888 157.083 11.76 156.806 11.504C156.529 11.248 156.39 10.928 156.39 10.544C156.39 10.1173 156.529 9.776 156.806 9.52C157.083 9.264 157.446 9.136 157.894 9.136H165.286C165.734 9.136 166.097 9.264 166.374 9.52C166.651 9.776 166.79 10.1173 166.79 10.544C166.79 10.928 166.651 11.248 166.374 11.504C166.097 11.76 165.734 11.888 165.286 11.888H157.894Z" fill="white"/>
</svg>
