<svg width="26" height="26" viewBox="0 0 26 26" fill="none" xmlns="http://www.w3.org/2000/svg">
<path d="M1 12.75C1 9.2598 2.32461 6.16798 4.67154 4.04096C6.74587 2.16099 9.69799 1 12.75 1C15.802 1 18.7541 2.16099 20.8285 4.04096C23.1754 6.16798 24.5 9.2598 24.5 12.75C24.5 15.6625 23.4441 18.6299 21.7356 20.6552C19.6173 23.1663 16.4174 24.5 12.75 24.5C9.08256 24.5 5.88266 23.1663 3.76436 20.6552C2.05593 18.6299 1 15.6625 1 12.75Z" stroke="#C77E98" stroke-width="2"/>
<path d="M9.2021 20C8.9381 20 8.7161 19.91 8.5361 19.73C8.3561 19.55 8.2661 19.328 8.2661 19.064V6.878C8.2661 6.602 8.3561 6.38 8.5361 6.212C8.7161 6.032 8.9381 5.942 9.2021 5.942H17.3381C17.6141 5.942 17.8361 6.026 18.0041 6.194C18.1721 6.35 18.2561 6.56 18.2561 6.824C18.2561 7.076 18.1721 7.28 18.0041 7.436C17.8361 7.592 17.6141 7.67 17.3381 7.67H10.1381V12.044H15.3041C15.5801 12.044 15.8021 12.128 15.9701 12.296C16.1381 12.452 16.2221 12.656 16.2221 12.908C16.2221 13.16 16.1381 13.37 15.9701 13.538C15.8021 13.694 15.5801 13.772 15.3041 13.772H10.1381V19.064C10.1381 19.328 10.0481 19.55 9.8681 19.73C9.6881 19.91 9.4661 20 9.2021 20Z" fill="#C77E98"/>
</svg>
