<svg width="14" height="22" viewBox="0 0 14 22" fill="none" xmlns="http://www.w3.org/2000/svg">
<path d="M13.371 9.65411L2.87055 0.903729C2.51359 0.60846 2.05417 0.466678 1.59289 0.509431C1.13161 0.552184 0.706072 0.775988 0.409459 1.13183C0.112845 1.48768 -0.0306689 1.94656 0.010344 2.408C0.051357 2.86944 0.273554 3.29582 0.628278 3.59377L9.51536 10.9992L0.628278 18.4046C0.272187 18.7021 0.048762 19.1289 0.00708239 19.591C-0.0345972 20.0532 0.108878 20.513 0.40599 20.8694C0.703101 21.2259 1.12955 21.4498 1.59166 21.4921C2.05377 21.5343 2.51375 21.3914 2.87055 21.0947L13.371 12.3441C13.5679 12.1797 13.7263 11.9739 13.8349 11.7415C13.9436 11.5091 13.9999 11.2557 13.9999 10.9991C13.9999 10.7426 13.9436 10.4891 13.8349 10.2567C13.7263 10.0243 13.5679 9.8186 13.371 9.65411Z" fill="white"/>
</svg>
