<svg width="194" height="96" viewBox="0 0 194 96" fill="none" xmlns="http://www.w3.org/2000/svg">
<path d="M122.482 5.00335C117.204 8.96148 112.333 13.1485 106.53 16.3827C96.2877 22.0918 85.1012 26.3727 74.061 30.2315C60.0556 35.1266 45.6353 38.3976 31.2466 41.9112C23.4138 43.8238 15.2452 45.5578 7.21979 46.4495C5.56354 46.6336 -0.612563 46.4403 3.24869 47.9512C9.72329 50.4848 17.2659 51.2346 24.0719 52.4562C39.4367 55.214 55.2337 55.8446 70.6905 58.2293C87.5342 60.8281 104.205 64.4222 121.013 67.1726C127.992 68.3147 149.042 70.4763 141.97 70.4763C131.445 70.4763 121.735 69.0526 111.336 67.473C100.191 65.7801 89.1661 63.2788 78.0321 61.4663C66.8017 59.6381 55.3765 60.7389 44.1276 59.0302C34.9551 57.6369 23.2826 57.7699 15.2621 52.4229C11.8772 50.1663 22.8927 46.4445 23.9718 45.8489C34.8474 39.8455 46.3393 34.6482 57.6093 29.4306C64.9279 26.0423 72.3066 22.4454 79.8341 19.5529C86.3833 17.0363 93.2077 15.1536 99.5894 12.2114C104.932 9.74819 112.346 7.44805 116.809 3.4683C117.605 2.7577 120.88 2 118.878 2C117.108 2 116.584 2.18502 115.14 3.20134C100.295 13.6479 83.354 21.1529 67.3535 29.6308C58.8245 34.1499 49.1251 37.5675 41.3912 43.3127C39.1628 44.9681 36.64 46.1573 34.3167 47.6509C31.235 49.6319 31.9502 49.8976 35.6515 51.3884C67.4159 64.1824 101.558 68.9033 134.228 78.8857C148.701 83.308 163.059 87.8031 177.743 91.4998C182.18 92.6168 186.945 93.9024 191.559 93.9024" stroke="#212121" stroke-width="3" stroke-linecap="round"/>
</svg>
