<svg width="60" height="60" viewBox="0 0 60 60" fill="none" xmlns="http://www.w3.org/2000/svg">
<path d="M40.1885 10.7456L36.9681 9.67722L35.8999 6.45678C35.8509 6.30882 35.7126 6.20898 35.5571 6.20898C35.4012 6.20898 35.2629 6.30882 35.2137 6.45678L34.146 9.67722L30.9252 10.7456C30.7773 10.7943 30.6777 10.9328 30.6777 11.0882C30.6777 11.2441 30.7773 11.3822 30.9252 11.4314L34.146 12.4996L35.2137 15.7202C35.2629 15.868 35.4012 15.9677 35.5571 15.9677C35.7127 15.9677 35.8509 15.868 35.8999 15.7202L36.9681 12.4996L40.1885 11.4314C40.3363 11.3822 40.4364 11.2439 40.4364 11.0882C40.4365 10.9327 40.3364 10.7943 40.1885 10.7456Z" fill="#C77E98"/>
<path d="M50.2906 6.55775L48.3722 5.92139L47.7359 4.00307C47.7068 3.91499 47.6243 3.85547 47.5315 3.85547C47.4388 3.85547 47.3564 3.91499 47.3274 4.00307L46.691 5.92139L44.7725 6.55775C44.6844 6.58679 44.625 6.66923 44.625 6.76187C44.625 6.85463 44.6843 6.93707 44.7725 6.96647L46.691 7.60283L47.3274 9.52091C47.3564 9.60923 47.4388 9.66863 47.5315 9.66863C47.6243 9.66863 47.7068 9.60923 47.7359 9.52091L48.3722 7.60283L50.2906 6.96647C50.3786 6.93707 50.4382 6.85463 50.4382 6.76187C50.4382 6.66923 50.3786 6.58679 50.2906 6.55775Z" fill="#C77E98"/>
<path d="M24.8423 33.9693L16.0103 25.1373L20.2704 20.8769L29.2445 29.8509L30.998 28.2105L21.4548 18.667C21.3962 18.5195 21.3075 18.3813 21.1883 18.2619C21.0689 18.1426 20.9306 18.0542 20.7831 17.9955L18.0017 15.214C17.0348 14.2472 15.7495 13.7148 14.3822 13.7148C13.0151 13.7148 11.7297 14.2473 10.7631 15.2139L10.3472 15.6297C8.35163 17.6256 8.35175 20.8728 10.3473 22.8684L23.0885 35.6097L24.8423 33.9693ZM12.0444 21.1715C10.9845 20.1117 10.9845 18.3869 12.0444 17.327L12.4602 16.9112C12.9737 16.3977 13.6562 16.115 14.3823 16.115C15.1085 16.115 15.7911 16.3976 16.3047 16.9113L18.5733 19.1799L14.3132 23.4402L12.0444 21.1715Z" fill="#C77E98"/>
<path d="M49.99 52.923C49.5135 51.491 47.0526 44.2643 45.4052 42.6168L45.3945 42.606C45.336 42.4585 45.2474 42.3203 45.128 42.2009C45.0087 42.0816 44.8705 41.9931 44.7229 41.9345L38.8862 36.0977L37.3202 37.9259L42.513 43.1186L38.2527 47.379L33.3891 42.5154L31.8232 44.3436L37.7508 50.2711C39.3982 51.9185 46.6246 54.3791 48.0567 54.8556C48.1809 54.897 48.3087 54.917 48.4354 54.917C48.7485 54.917 49.0551 54.7944 49.2837 54.5659L49.6994 54.1506C50.0212 53.8297 50.1337 53.3543 49.99 52.923ZM40.0302 48.9962L44.1302 44.8961C44.9566 46.2673 46.1856 49.3421 47.1321 51.9979C44.4764 51.0515 41.4016 49.8227 40.0302 48.9962Z" fill="#C77E98"/>
<path d="M49.6939 14.9384L49.459 14.7036C48.8212 14.0661 47.9671 13.7148 47.0545 13.7148C46.1356 13.7148 45.2729 14.0676 44.6221 14.7089L18.336 38.9633C18.3241 38.9743 18.3127 38.9854 18.3012 38.9967C17.7572 39.5405 17.4656 40.2295 17.4548 40.9909C17.1338 40.9241 16.7987 40.8848 16.4513 40.8848C15.0775 40.8848 13.8391 41.4741 12.7706 42.6364C11.4169 44.109 10.8581 45.7348 10.3652 47.169C9.63371 49.2979 9.05579 50.9794 6.20267 52.1972C5.83607 52.3536 5.57123 52.6817 5.49551 53.0731C5.41979 53.4644 5.54327 53.8676 5.82515 54.1493C6.76499 55.0893 9.27575 55.4229 11.1401 55.4229C11.1402 55.4229 11.1399 55.4229 11.1402 55.4229C13.5793 55.4229 18.1967 54.897 21.7164 51.3772C22.7204 50.3732 23.2281 49.2002 23.2253 47.8907C23.2244 47.5598 23.1888 47.2366 23.1282 46.9237C23.2082 46.9298 23.2885 46.9341 23.3693 46.9341C24.1509 46.9341 24.8576 46.6406 25.4131 46.0852C25.4244 46.0738 25.4357 46.0623 25.4465 46.0504L49.6892 19.7757C51.0159 18.4293 51.0203 16.2651 49.6939 14.9384ZM20.0193 49.6803C17.111 52.5887 13.2079 53.023 11.1402 53.023C10.5679 53.023 10.0569 52.9915 9.61103 52.9423C11.4349 51.4408 12.0631 49.6132 12.6349 47.9492C13.0919 46.6197 13.5234 45.3639 14.5375 44.2607C15.1411 43.6041 15.767 43.2849 16.4511 43.2849C17.5845 43.2849 18.7246 44.1722 19.1723 44.6102C19.2177 44.6584 19.2522 44.6932 19.2709 44.7119L19.3081 44.7492C19.4329 44.8786 20.8219 46.3581 20.8254 47.8962C20.8268 48.553 20.5631 49.1367 20.0193 49.6803ZM47.9736 18.0977C47.9622 18.1091 47.951 18.1206 47.9402 18.1325L23.7026 44.4016C23.6016 44.4982 23.5094 44.5343 23.3694 44.5343C22.7735 44.5343 21.8468 43.8862 21.3834 43.4301L21.015 43.0617C21.0133 43.06 21.0109 43.0575 21.0093 43.0559C20.9823 43.0272 20.9401 42.9832 20.8842 42.9275C20.5113 42.5262 19.8546 41.6407 19.8538 41.0354C19.8536 40.898 19.8895 40.8075 19.9849 40.7075L46.2656 16.4583C46.2775 16.4472 46.2892 16.436 46.3006 16.4247C46.5002 16.2249 46.7679 16.115 47.0545 16.115C47.3263 16.115 47.5776 16.2166 47.7625 16.4014L47.9971 16.6359C48.3871 17.0256 48.3762 17.6952 47.9736 18.0977Z" fill="#C77E98"/>
</svg>
