<svg width="24" height="24" viewBox="0 0 24 24" fill="none" xmlns="http://www.w3.org/2000/svg">
<g clip-path="url(#clip0_1_172)">
<path d="M22.5 6C20.5 4 17.3 4 15.3 6L6.59998 14.6C5.39998 15.8 5.39998 17.7 6.59998 18.9C7.79998 20.1 9.69998 20.1 10.9 18.9L18.1 11.7C18.5 11.3 18.5 10.7 18.1 10.3C17.7 9.9 17.1 9.9 16.7 10.3L9.49998 17.5C9.09998 17.9 8.49998 17.9 8.09998 17.5C7.69998 17.1 7.69998 16.5 8.09998 16.1L16.8 7.4C18 6.2 19.9 6.2 21.1 7.4C22.3 8.6 22.3 10.5 21.1 11.7L12.4 20.3C10.4 22.3 7.19998 22.3 5.19998 20.3C3.19998 18.3 3.19998 15.1 5.19998 13.1L16.7 1.7C17.1 1.3 17.1 0.7 16.7 0.3C16.3 -0.1 15.7 -0.1 15.3 0.3L3.69998 11.8C0.899976 14.6 0.899976 19.1 3.69998 21.9C6.49998 24.7 11 24.7 13.8 21.9L22.5 13.3C24.4 11.3 24.4 8 22.5 6Z" fill="#C77E98"/>
</g>
<defs>
<clipPath id="clip0_1_172">
<rect width="24" height="24" fill="white"/>
</clipPath>
</defs>
</svg>
