<svg width="64" height="64" viewBox="0 0 64 64" fill="none" xmlns="http://www.w3.org/2000/svg">
<path d="M32.0002 16.1C24.1002 16.1 17.8002 22.5 17.7002 30.4C17.7002 36 20.9002 40.8 25.7002 43.2V48V50V55.3H27.3002L29.1002 60.6H35.0002L35.2002 59.9L36.7002 55.3H38.3002V54.3V50V48V43.2C43.0002 40.9 46.2002 36 46.3002 30.4C46.2002 22.5 39.9002 16.1 32.0002 16.1ZM27.7002 53.2V49.9H36.3002V53.2H27.7002ZM33.5002 58.5H30.5002L29.4002 55.2H34.6002L33.5002 58.5ZM36.9002 41.6L36.3002 41.9V48H33.0002V38.3C34.0002 37.9 34.8002 36.9 34.8002 35.7C34.8002 34.2 33.6002 32.9 32.0002 32.9C30.5002 32.9 29.2002 34.1 29.2002 35.7C29.2002 36.9 29.9002 37.9 31.0002 38.3V48H27.7002V41.9L27.1002 41.6C22.8002 39.7 19.7002 35.4 19.8002 30.4C19.8002 27 21.2002 24 23.4002 21.7C25.6002 19.5 28.7002 18.1 32.1002 18.1C35.5002 18.1 38.5002 19.5 40.8002 21.7C43.0002 23.9 44.4002 27 44.4002 30.4C44.3002 35.4 41.2002 39.7 36.9002 41.6ZM32.0002 36.4C31.6002 36.4 31.2002 36.1 31.2002 35.6C31.2002 35.2 31.5002 34.8 32.0002 34.8C32.4002 34.8 32.8002 35.1 32.8002 35.6C32.8002 36.1 32.4002 36.4 32.0002 36.4Z" fill="white"/>
<path d="M33 3.5H31V10.5H33V3.5Z" fill="white"/>
<path d="M60 30.5H53V32.5H60V30.5Z" fill="white"/>
<path d="M11 30.5H4V32.5H11V30.5Z" fill="white"/>
<path d="M51.0928 11.0288L46.1431 15.9785L47.5573 17.3927L52.507 12.443L51.0928 11.0288Z" fill="white"/>
<path d="M12.9371 11.0065L11.5229 12.4207L16.4726 17.3704L17.8868 15.9562L12.9371 11.0065Z" fill="white"/>
</svg>
