<svg width="64" height="64" viewBox="0 0 64 64" fill="none" xmlns="http://www.w3.org/2000/svg">
<path d="M42.8876 39.375C42.6626 39.3875 42.4501 39.3875 42.2251 39.3875C38.5876 39.3875 35.1626 37.975 32.5876 35.4C30.0126 32.825 28.6001 29.4 28.6001 25.7625C28.6001 23.6875 29.0626 21.6875 29.9251 19.875C30.3126 19.075 30.7751 18.3125 31.3126 17.6C30.3626 17.7 29.4501 17.9 28.5626 18.175C22.7126 20.025 18.4751 25.4875 18.4751 31.95C18.4751 39.925 24.9376 46.3875 32.9126 46.3875C37.3251 46.3875 41.2626 44.4125 43.9126 41.3C44.5126 40.5875 45.0626 39.8125 45.5126 38.9875C44.6626 39.2 43.7876 39.3375 42.8876 39.375Z" fill="#212121"/>
</svg>
