<svg width="194" height="134" viewBox="0 0 194 134" fill="none" xmlns="http://www.w3.org/2000/svg">
<path d="M71.077 5.00335C76.3545 8.96148 81.2255 13.1485 87.0281 16.3827C97.2709 22.0918 108.457 26.3727 119.498 30.2315C133.503 35.1266 147.923 38.3976 162.312 41.9112C170.145 43.8238 178.313 45.5578 186.339 46.4495C187.995 46.6336 194.171 46.4403 190.31 47.9512C183.835 50.4848 176.293 51.2346 169.487 52.4562C154.122 55.214 138.325 55.8446 122.868 58.2293C106.024 60.8281 89.3535 64.4222 72.5453 67.1726C65.5663 68.3147 44.5168 70.4763 51.5886 70.4763C62.1134 70.4763 71.8239 69.0526 82.2228 67.473C93.3677 65.7801 104.393 63.2788 115.527 61.4663C126.757 59.6381 138.182 60.7389 149.431 59.0302C158.604 57.6369 170.276 57.7699 178.297 52.4229C181.681 50.1663 170.666 46.4445 169.587 45.8489C158.711 39.8455 147.219 34.6482 135.949 29.4306C128.631 26.0423 121.252 22.4454 113.725 19.5529C107.175 17.0363 100.351 15.1536 93.9692 12.2114C88.6265 9.74819 81.2121 7.44805 76.75 3.4683C75.9533 2.7577 72.6788 2 74.681 2C76.451 2 76.9743 2.18502 78.4185 3.20134C93.2637 13.6479 110.205 21.1529 126.205 29.6308C134.734 34.1499 144.433 37.5675 152.167 43.3127C154.396 44.9681 156.919 46.1573 159.242 47.6509C162.324 49.6319 161.608 49.8976 157.907 51.3884C126.143 64.1824 92.0003 68.9033 59.3306 78.8857C44.8575 83.308 30.4993 87.8031 15.8154 91.4998C11.3781 92.6168 6.61314 93.9024 2 93.9024" stroke="#212121" stroke-width="3" stroke-linecap="round"/>
<path d="M140.232 96.896C140.339 96.8747 140.488 96.864 140.68 96.864C141.043 96.864 141.309 96.9387 141.48 97.088C141.672 97.216 141.768 97.3867 141.768 97.6C141.768 97.92 141.597 98.24 141.256 98.56C140.915 98.8587 140.499 99.0507 140.008 99.136L139.88 99.296C139.688 99.488 139.464 99.8187 139.208 100.288C138.803 101.035 138.397 102.091 137.992 103.456C137.459 105.376 136.989 107.968 136.584 111.232C136.328 113.365 136.093 115.744 135.88 118.368C135.859 118.517 135.848 118.752 135.848 119.072C135.805 119.755 135.741 120.32 135.656 120.768C135.571 121.195 135.411 121.557 135.176 121.856C134.984 122.069 134.643 122.293 134.152 122.528C133.683 122.741 133.245 122.848 132.84 122.848C132.307 122.848 131.987 122.635 131.88 122.208C131.411 120.629 130.845 118.325 130.184 115.296C130.077 114.827 129.917 114.133 129.704 113.216C129.491 112.299 129.299 111.499 129.128 110.816L128.264 107.52C128.136 108.864 127.976 110.219 127.784 111.584C127.443 114.037 127.069 116.085 126.664 117.728C126.28 119.371 125.651 120.843 124.776 122.144C124.541 122.507 124.211 122.805 123.784 123.04C123.379 123.253 122.963 123.36 122.536 123.36C122.237 123.36 121.96 123.307 121.704 123.2C121.448 123.072 121.32 122.901 121.32 122.688C121.32 122.539 121.363 122.411 121.448 122.304C122.237 120.896 122.824 119.381 123.208 117.76C123.613 116.117 123.987 114.091 124.328 111.68C124.819 108.075 125.064 104.747 125.064 101.696C125.064 100.459 125.043 99.5307 125 98.912C124.979 98.5067 125.224 98.1547 125.736 97.856C126.248 97.536 126.781 97.376 127.336 97.376C127.763 97.376 128.083 97.4827 128.296 97.696C128.787 98.1867 129.16 98.7413 129.416 99.36C129.693 99.9573 130.035 100.853 130.44 102.048C130.973 103.584 131.645 105.909 132.456 109.024C132.605 109.557 132.808 110.357 133.064 111.424C133.149 110.763 133.299 109.749 133.512 108.384C133.853 106.336 134.216 104.587 134.6 103.136C135.005 101.685 135.667 100.341 136.584 99.104C137.501 97.8453 138.717 97.1093 140.232 96.896ZM149.561 105.6C148.473 106.432 147.587 107.776 146.905 109.632C148.995 108.843 150.883 108.181 152.569 107.648C151.865 106.667 151.15 106.005 150.425 105.664C150.275 105.6 150.126 105.557 149.977 105.536C149.849 105.515 149.774 105.504 149.753 105.504C149.774 105.525 149.753 105.547 149.689 105.568C149.646 105.589 149.603 105.6 149.561 105.6ZM149.689 103.328C150.03 103.243 150.393 103.2 150.777 103.2C152.825 103.2 154.681 104.576 156.345 107.328C156.409 107.413 156.441 107.52 156.441 107.648C156.441 107.883 156.291 108.128 155.993 108.384C155.758 108.64 155.459 108.843 155.097 108.992C152.963 109.931 149.998 111.051 146.201 112.352C145.987 113.44 145.881 114.56 145.881 115.712C145.881 116.245 145.891 116.629 145.913 116.864C145.955 117.824 146.147 118.656 146.489 119.36C146.595 119.595 146.745 119.819 146.937 120.032C147.15 120.245 147.31 120.384 147.417 120.448C147.481 120.491 147.587 120.512 147.737 120.512C147.886 120.512 148.057 120.469 148.249 120.384C148.462 120.299 148.697 120.181 148.953 120.032C149.571 119.669 150.147 119.253 150.681 118.784C151.214 118.315 151.854 117.707 152.601 116.96C152.899 116.661 153.401 116.512 154.105 116.512C154.489 116.512 154.809 116.576 155.065 116.704C155.342 116.811 155.481 116.971 155.481 117.184C155.481 117.376 155.374 117.589 155.161 117.824C153.838 119.253 152.483 120.469 151.097 121.472C149.71 122.475 148.323 122.976 146.937 122.976C146.275 122.976 145.657 122.837 145.081 122.56C144.121 122.112 143.427 121.397 143.001 120.416C142.574 119.435 142.361 118.283 142.361 116.96C142.361 115.979 142.489 114.827 142.745 113.504L142.489 113.568L142.233 113.664C141.913 113.771 141.657 113.824 141.465 113.824C141.166 113.824 140.931 113.749 140.761 113.6C140.59 113.451 140.505 113.259 140.505 113.024C140.505 112.747 140.611 112.48 140.825 112.224C141.059 111.947 141.401 111.723 141.849 111.552L143.417 110.944C143.609 110.347 143.897 109.568 144.281 108.608C144.878 107.285 145.625 106.144 146.521 105.184C147.417 104.224 148.473 103.605 149.689 103.328ZM176.576 103.072C176.96 102.752 177.461 102.592 178.08 102.592C178.421 102.592 178.709 102.656 178.944 102.784C179.179 102.912 179.296 103.083 179.296 103.296C179.296 103.531 179.115 103.819 178.752 104.16C175.573 106.955 172.181 110.219 168.576 113.952C170.539 116.555 172.491 118.933 174.432 121.088C174.581 121.237 174.656 121.408 174.656 121.6C174.656 122.005 174.368 122.389 173.792 122.752C173.216 123.093 172.64 123.264 172.064 123.264C171.659 123.264 171.349 123.147 171.136 122.912C168.832 120.203 167.125 118.112 166.016 116.64L163.072 119.84L160.704 122.432C160.512 122.645 160.192 122.827 159.744 122.976C159.317 123.125 158.912 123.2 158.528 123.2C158.251 123.2 158.027 123.157 157.856 123.072C157.685 122.987 157.6 122.859 157.6 122.688C157.6 122.517 157.696 122.293 157.888 122.016C159.723 119.584 161.877 117.045 164.352 114.4C162.325 111.541 160.288 108.459 158.24 105.152C158.133 104.981 158.08 104.811 158.08 104.64C158.08 104.213 158.325 103.84 158.816 103.52C159.328 103.2 159.861 103.04 160.416 103.04C161.013 103.04 161.419 103.232 161.632 103.616C163.296 106.453 165.056 109.163 166.912 111.744C169.515 109.163 172.736 106.272 176.576 103.072ZM189.116 115.712C189.265 115.563 189.5 115.445 189.82 115.36C190.14 115.275 190.46 115.232 190.78 115.232C191.569 115.232 191.964 115.435 191.964 115.84C191.964 116.032 191.857 116.245 191.644 116.48C191.388 116.779 191.153 117.067 190.94 117.344C190.726 117.6 190.534 117.835 190.364 118.048C189.425 119.264 188.582 120.235 187.836 120.96C187.089 121.664 186.214 122.176 185.212 122.496C184.742 122.645 184.241 122.72 183.708 122.72C182.812 122.72 182.044 122.464 181.404 121.952C180.785 121.44 180.422 120.693 180.316 119.712C180.273 119.435 180.252 119.008 180.252 118.432C180.252 117.323 180.38 116.192 180.636 115.04C180.892 113.888 181.265 112.448 181.756 110.72L182.14 109.344L180.924 109.472C180.326 109.515 179.516 109.6 178.492 109.728C178.001 109.792 177.628 109.739 177.372 109.568C177.116 109.397 176.988 109.173 176.988 108.896C176.988 108.576 177.137 108.267 177.436 107.968C177.756 107.648 178.161 107.467 178.652 107.424L182.78 106.944C183.718 103.488 184.774 100.096 185.948 96.768C186.054 96.4693 186.342 96.2133 186.812 96C187.302 95.7653 187.772 95.648 188.22 95.648C188.497 95.648 188.721 95.7013 188.892 95.808C189.084 95.9147 189.18 96.0747 189.18 96.288C189.18 96.352 189.158 96.4693 189.116 96.64C187.878 100.117 186.844 103.435 186.012 106.592C187.505 106.443 188.497 106.368 188.988 106.368C189.606 106.368 189.916 106.549 189.916 106.912C189.916 107.211 189.734 107.541 189.372 107.904C189.009 108.245 188.636 108.459 188.252 108.544C186.972 108.757 186.012 108.907 185.372 108.992C185.009 110.443 184.689 111.861 184.411 113.248C184.369 113.419 184.22 114.048 183.964 115.136C183.708 116.203 183.58 117.205 183.58 118.144C183.58 119.36 183.9 120.021 184.54 120.128C184.945 120.192 185.404 119.968 185.916 119.456C186.449 118.923 187.132 118.133 187.964 117.088C188.476 116.427 188.86 115.968 189.116 115.712Z" fill="#212121"/>
</svg>
