<svg width="60" height="60" viewBox="0 0 60 60" fill="none" xmlns="http://www.w3.org/2000/svg">
<path fill-rule="evenodd" clip-rule="evenodd" d="M30 56.25C15.5025 56.25 3.75 44.4975 3.75 30C3.75 15.5025 15.5025 3.75 30 3.75C44.4975 3.75 56.25 15.5025 56.25 30C56.25 44.4975 44.4975 56.25 30 56.25ZM44.5412 48.75C44.345 48.4613 44.0975 48.1025 43.8988 47.8225C43.5525 47.33 43.2063 46.8375 42.8963 46.35C42.8813 46.3275 41.1688 44.03 35 43.75C32.8538 43.75 31.2937 42.14 31.29 39.9175L31.25 38.75C31.25 38.5812 31.23 38.935 31.25 38.75V37.5L32.5 36.25C33.4137 35.8262 34.575 35.1137 35.4938 34.42L35.6625 34.3038C36.3888 33.8425 37.4038 32.8713 37.5 32.5L37.545 32.0238C38.0112 29.62 38.75 25.2475 38.75 23.75C38.75 17.8625 35.8875 15 30 15C24.0312 15 21.25 17.78 21.25 23.75C21.25 25.2875 21.9887 29.6387 22.4537 32.02L22.4975 32.46C22.5762 32.8512 23.4963 33.7775 24.3088 34.2875L24.4312 34.365C25.4163 35.0538 26.5938 35.8213 27.5 36.25L28.75 37.5V38.75C28.7675 38.9225 28.75 38.5675 28.75 38.75L28.7087 39.9175C28.7087 42.1362 27.1512 43.7475 25.105 43.7475C25.1038 43.7475 25.1025 43.7475 25.1012 43.7475C18.9062 43.9988 17.11 46.3438 17.1075 46.3438C16.7925 46.8388 16.4475 47.33 16.0987 47.8237C15.9025 48.1037 15.655 48.4613 15.4575 48.75C19.4788 51.8725 24.5138 53.75 29.9988 53.75C35.4838 53.75 40.52 51.8725 44.5412 48.75ZM30 6.25C16.8837 6.25 6.25 16.8837 6.25 30C6.25 36.7325 9.0625 42.7962 13.5625 47.1175C14.04 46.4113 14.55 45.7062 15 45C15 45 17.0875 41.5713 25 41.25C25.8062 41.25 26.2087 40.7225 26.2087 39.9175H26.21C26.2087 39.2663 26.2087 38.75 26.2087 38.75C26.2087 38.5875 26.1825 38.4412 26.175 38.2838C25.27 37.8563 24.22 37.2663 23.0012 36.4162C23.0012 36.4162 20.0012 34.5712 20.0012 32.5C20.0012 32.5 18.7513 26.105 18.7513 23.75C18.7513 17.945 21.2337 12.5 30.0012 12.5C38.6512 12.5 41.2513 17.945 41.2513 23.75C41.2513 26.0475 40.0013 32.5 40.0013 32.5C40.0013 34.5138 37.0013 36.4162 37.0013 36.4162C35.8075 37.3175 34.75 37.9188 33.8225 38.3488C33.8162 38.485 33.7938 38.61 33.7938 38.75C33.7938 38.75 33.7925 39.2663 33.7925 39.9175H33.7938C33.7913 40.7225 34.1938 41.25 35 41.25C43.03 41.61 45 45 45 45C45.45 45.7062 45.9587 46.4113 46.4362 47.1175C50.9362 42.7962 53.75 36.7325 53.75 30C53.75 16.8837 43.1162 6.25 30 6.25Z" fill="#C77E98"/>
</svg>
