<svg width="194" height="134" viewBox="0 0 194 134" fill="none" xmlns="http://www.w3.org/2000/svg">
<path d="M122.482 5.00335C117.204 8.96148 112.333 13.1485 106.53 16.3827C96.2877 22.0918 85.1012 26.3727 74.061 30.2315C60.0556 35.1266 45.6353 38.3976 31.2466 41.9112C23.4138 43.8238 15.2452 45.5578 7.21979 46.4495C5.56354 46.6336 -0.612563 46.4403 3.24869 47.9512C9.72329 50.4848 17.2659 51.2346 24.0719 52.4562C39.4367 55.214 55.2337 55.8446 70.6905 58.2293C87.5342 60.8281 104.205 64.4222 121.013 67.1726C127.992 68.3147 149.042 70.4763 141.97 70.4763C131.445 70.4763 121.735 69.0526 111.336 67.473C100.191 65.7801 89.1661 63.2788 78.0321 61.4663C66.8017 59.6381 55.3765 60.7389 44.1276 59.0302C34.9551 57.6369 23.2826 57.7699 15.2621 52.4229C11.8772 50.1663 22.8927 46.4445 23.9718 45.8489C34.8474 39.8455 46.3393 34.6482 57.6093 29.4306C64.9279 26.0423 72.3066 22.4454 79.8341 19.5529C86.3833 17.0363 93.2077 15.1536 99.5894 12.2114C104.932 9.74819 112.346 7.44805 116.809 3.4683C117.605 2.7577 120.88 2 118.878 2C117.108 2 116.584 2.18502 115.14 3.20134C100.295 13.6479 83.354 21.1529 67.3535 29.6308C58.8245 34.1499 49.1251 37.5675 41.3912 43.3127C39.1628 44.9681 36.64 46.1573 34.3167 47.6509C31.235 49.6319 31.9502 49.8976 35.6515 51.3884C67.4159 64.1824 101.558 68.9033 134.228 78.8857C148.701 83.308 163.059 87.8031 177.743 91.4998C182.18 92.6168 186.945 93.9024 191.559 93.9024" stroke="white" stroke-width="3" stroke-linecap="round"/>
<path d="M10.992 108.8C15.2373 107.136 17.36 105.579 17.36 104.128C17.36 103.296 16.8373 102.667 15.792 102.24C14.7467 101.792 13.3707 101.387 11.664 101.024C11.2587 100.96 10.7893 100.853 10.256 100.704L9.36 100.416C8.656 103.979 8.10133 107.104 7.696 109.792C8.464 109.707 9.56267 109.376 10.992 108.8ZM17.424 100.128C18.4053 100.491 19.152 100.96 19.664 101.536C20.1973 102.112 20.464 102.741 20.464 103.424C20.464 104.405 19.9307 105.397 18.864 106.4C17.4347 107.744 15.7173 108.907 13.712 109.888C11.728 110.848 9.744 111.499 7.76 111.84C7.58933 111.883 7.46133 111.904 7.376 111.904C6.84267 115.467 6.448 118.709 6.192 121.632C6.14933 122.037 5.85067 122.389 5.296 122.688C4.74133 122.987 4.18667 123.136 3.632 123.136C3.33333 123.136 3.088 123.072 2.896 122.944C2.704 122.816 2.61867 122.624 2.64 122.368C2.98133 118.955 3.41867 115.371 3.952 111.616C2.94933 111.189 2.448 110.432 2.448 109.344C2.448 108.875 2.55467 108.331 2.768 107.712C2.87467 107.435 3.13067 107.2 3.536 107.008C3.94133 106.795 4.35733 106.667 4.784 106.624C5.14667 104.533 5.66933 102.016 6.352 99.072C5.30667 98.3253 4.74133 97.376 4.656 96.224C4.63467 95.84 4.88 95.4987 5.392 95.2C5.904 94.88 6.42667 94.72 6.96 94.72C7.68533 94.72 8.05867 94.9867 8.08 95.52C8.10133 95.9893 8.28267 96.4267 8.624 96.832C8.73067 96.8107 8.89067 96.8 9.104 96.8C9.78667 96.8 10.0853 97.0347 10 97.504L9.904 97.824C10.544 98.1867 11.28 98.496 12.112 98.752C12.944 98.9867 13.936 99.232 15.088 99.488C16.2827 99.7653 17.0613 99.9787 17.424 100.128ZM28.6328 102.88C29.2514 102.624 29.8168 102.496 30.3288 102.496C30.8834 102.496 31.3314 102.645 31.6728 102.944C32.0141 103.221 32.1848 103.68 32.1848 104.32C32.1848 104.939 32.0888 105.611 31.8968 106.336C31.7048 107.061 31.4381 107.915 31.0968 108.896L30.6488 110.24C30.5208 110.645 30.1901 110.987 29.6568 111.264C29.1234 111.541 28.6114 111.68 28.1208 111.68C27.8008 111.68 27.5554 111.616 27.3848 111.488C27.2354 111.339 27.2034 111.125 27.2888 110.848C27.6728 109.653 28.0568 108.331 28.4408 106.88C28.5261 106.219 28.5901 105.781 28.6328 105.568L28.5048 105.696C26.8621 107.104 25.3581 108.875 23.9928 111.008C23.3741 114.4 22.9901 117.803 22.8408 121.216C22.8194 121.621 22.5421 121.984 22.0088 122.304C21.4968 122.603 20.9634 122.752 20.4088 122.752C20.0888 122.752 19.8221 122.677 19.6088 122.528C19.3954 122.379 19.2994 122.155 19.3208 121.856C19.4914 118.784 19.8221 115.797 20.3128 112.896C20.0994 112.747 19.9928 112.576 19.9928 112.384C19.9928 112.256 20.0354 112.117 20.1208 111.968L20.6008 111.168C21.0701 108.715 21.6461 106.251 22.3288 103.776C22.4354 103.392 22.7661 103.061 23.3208 102.784C23.8968 102.485 24.4408 102.336 24.9528 102.336C25.2728 102.336 25.5181 102.4 25.6888 102.528C25.8594 102.656 25.9021 102.848 25.8168 103.104C25.4754 104.299 25.2621 105.088 25.1768 105.472C26.4568 104.192 27.6088 103.328 28.6328 102.88ZM40.0605 105.6C38.9725 106.432 38.0872 107.776 37.4045 109.632C39.4952 108.843 41.3832 108.181 43.0685 107.648C42.3645 106.667 41.6498 106.005 40.9245 105.664C40.7752 105.6 40.6258 105.557 40.4765 105.536C40.3485 105.515 40.2738 105.504 40.2525 105.504C40.2738 105.525 40.2525 105.547 40.1885 105.568C40.1458 105.589 40.1032 105.6 40.0605 105.6ZM40.1885 103.328C40.5298 103.243 40.8925 103.2 41.2765 103.2C43.3245 103.2 45.1805 104.576 46.8445 107.328C46.9085 107.413 46.9405 107.52 46.9405 107.648C46.9405 107.883 46.7912 108.128 46.4925 108.384C46.2578 108.64 45.9592 108.843 45.5965 108.992C43.4632 109.931 40.4978 111.051 36.7005 112.352C36.4872 113.44 36.3805 114.56 36.3805 115.712C36.3805 116.245 36.3912 116.629 36.4125 116.864C36.4552 117.824 36.6472 118.656 36.9885 119.36C37.0952 119.595 37.2445 119.819 37.4365 120.032C37.6498 120.245 37.8098 120.384 37.9165 120.448C37.9805 120.491 38.0872 120.512 38.2365 120.512C38.3858 120.512 38.5565 120.469 38.7485 120.384C38.9618 120.299 39.1965 120.181 39.4525 120.032C40.0712 119.669 40.6472 119.253 41.1805 118.784C41.7138 118.315 42.3538 117.707 43.1005 116.96C43.3992 116.661 43.9005 116.512 44.6045 116.512C44.9885 116.512 45.3085 116.576 45.5645 116.704C45.8418 116.811 45.9805 116.971 45.9805 117.184C45.9805 117.376 45.8738 117.589 45.6605 117.824C44.3378 119.253 42.9832 120.469 41.5965 121.472C40.2098 122.475 38.8232 122.976 37.4365 122.976C36.7752 122.976 36.1565 122.837 35.5805 122.56C34.6205 122.112 33.9272 121.397 33.5005 120.416C33.0738 119.435 32.8605 118.283 32.8605 116.96C32.8605 115.979 32.9885 114.827 33.2445 113.504L32.9885 113.568L32.7325 113.664C32.4125 113.771 32.1565 113.824 31.9645 113.824C31.6658 113.824 31.4312 113.749 31.2605 113.6C31.0898 113.451 31.0045 113.259 31.0045 113.024C31.0045 112.747 31.1112 112.48 31.3245 112.224C31.5592 111.947 31.9005 111.723 32.3485 111.552L33.9165 110.944C34.1085 110.347 34.3965 109.568 34.7805 108.608C35.3778 107.285 36.1245 106.144 37.0205 105.184C37.9165 104.224 38.9725 103.605 40.1885 103.328ZM58.884 103.36C59.0333 103.147 59.332 102.965 59.78 102.816C60.2493 102.645 60.6867 102.56 61.092 102.56C61.3907 102.56 61.6253 102.603 61.796 102.688C61.988 102.773 62.084 102.912 62.084 103.104C62.084 103.253 62.0307 103.413 61.924 103.584C60.1747 106.507 58.7027 109.408 57.508 112.288C56.3347 115.147 55.428 118.112 54.788 121.184C54.7027 121.589 54.3933 121.963 53.86 122.304C53.348 122.624 52.836 122.784 52.324 122.784C51.748 122.784 51.3853 122.56 51.236 122.112C50.4253 119.723 49.8493 117.291 49.508 114.816C49.188 112.32 48.8893 109.099 48.612 105.152L48.58 104.48C48.5587 104.011 48.836 103.595 49.412 103.232C50.0093 102.869 50.596 102.688 51.172 102.688C51.7267 102.688 52.0147 102.88 52.036 103.264C52.0787 103.776 52.1 104.181 52.1 104.48V104.576C52.3347 108.651 52.676 111.957 53.124 114.496C54.596 110.272 56.516 106.56 58.884 103.36ZM66.4953 97.92C66.2606 97.856 66.0259 97.824 65.7913 97.824C65.3219 97.824 64.9059 97.9413 64.5433 98.176C64.0739 98.432 63.8073 98.688 63.7433 98.944C63.4659 99.9467 63.2846 100.608 63.1993 100.928V101.024C63.1993 101.131 63.2419 101.237 63.3273 101.344C63.4126 101.429 63.5086 101.493 63.6153 101.536C63.7859 101.621 63.9779 101.664 64.1913 101.664C64.5326 101.664 64.9379 101.568 65.4073 101.376C65.8979 101.163 66.2179 100.875 66.3673 100.512C66.4953 100.149 66.6766 99.5093 66.9113 98.592V98.528C66.9113 98.4213 66.8686 98.3147 66.7833 98.208C66.6979 98.08 66.6019 97.984 66.4953 97.92ZM65.2473 110.752C65.1193 111.605 64.8739 113.152 64.5113 115.392C64.1699 117.611 63.8819 119.627 63.6473 121.44C63.5833 121.845 63.2953 122.197 62.7833 122.496C62.2926 122.773 61.7913 122.912 61.2793 122.912C60.9379 122.912 60.6713 122.848 60.4793 122.72C60.3086 122.571 60.2446 122.357 60.2873 122.08C60.6499 119.947 61.0339 117.515 61.4393 114.784C61.8659 112.032 62.1646 110.069 62.3353 108.896L63.0073 104.512C63.0713 104.128 63.3593 103.797 63.8713 103.52C64.4046 103.243 64.9166 103.104 65.4073 103.104C65.7059 103.104 65.9406 103.168 66.1113 103.296C66.2819 103.424 66.3459 103.605 66.3033 103.84L65.2473 110.752ZM78.768 111.648C78.768 109.387 77.4453 107.605 74.8 106.304C74.1387 106.859 73.4773 107.595 72.816 108.512C72.0053 109.685 71.3333 110.997 70.8 112.448C70.5867 113.024 70.384 113.813 70.192 114.816C70 115.797 69.904 116.715 69.904 117.568C69.904 118.443 70.0213 119.147 70.256 119.68C70.512 120.192 70.9173 120.448 71.472 120.448C71.92 120.448 72.4427 120.267 73.04 119.904C74.6827 118.944 76.048 117.749 77.136 116.32C78.224 114.891 78.768 113.333 78.768 111.648ZM79.664 105.856C80.432 106.581 81.0187 107.403 81.424 108.32C81.8507 109.237 82.064 110.208 82.064 111.232C82.064 112.704 81.6373 114.197 80.784 115.712C80.208 116.736 79.3653 117.813 78.256 118.944C77.1467 120.075 75.9093 121.035 74.544 121.824C73.2 122.592 71.9093 122.976 70.672 122.976C69.904 122.976 69.1787 122.805 68.496 122.464C67.0453 121.675 66.32 120.256 66.32 118.208C66.32 116.736 66.6507 115.125 67.312 113.376C67.9733 111.605 68.6773 110.112 69.424 108.896C71.2373 106.016 73.1467 104.203 75.152 103.456C75.7067 103.243 76.304 103.136 76.944 103.136C77.6907 103.136 78.32 103.328 78.832 103.712C79.344 104.075 79.6427 104.651 79.728 105.44V105.568C79.728 105.632 79.7067 105.728 79.664 105.856ZM96.1553 104.928C96.3046 104.672 96.6673 104.405 97.2433 104.128C97.8406 103.829 98.3633 103.68 98.8113 103.68C99.4513 103.68 99.7286 103.979 99.6433 104.576C99.6433 104.64 99.6326 104.736 99.6112 104.864C99.5899 104.992 99.5686 105.088 99.5473 105.152V105.216C99.3339 106.645 99.0886 108.363 98.8113 110.368C98.5553 112.352 98.3526 113.909 98.2033 115.04L97.3713 121.184C97.3073 121.611 96.9979 121.973 96.4433 122.272C95.9099 122.571 95.3659 122.72 94.8113 122.72C94.4699 122.72 94.1926 122.645 93.9793 122.496C93.7873 122.347 93.7126 122.133 93.7553 121.856C93.9899 120.021 94.3633 117.269 94.8753 113.6L94.5553 114.144C94.0006 115.083 93.5846 115.765 93.3073 116.192C92.3473 117.685 91.3233 118.944 90.2353 119.968C89.1686 120.992 87.9419 121.675 86.5553 122.016C86.0219 122.144 85.5419 122.208 85.1153 122.208C83.1099 122.208 82.1073 120.843 82.1073 118.112C82.1073 116.832 82.3099 115.381 82.7153 113.76C83.1206 112.117 83.5793 110.581 84.0913 109.152C84.6246 107.723 85.0833 106.635 85.4673 105.888C85.6166 105.589 85.9473 105.333 86.4593 105.12C86.9926 104.885 87.5046 104.768 87.9953 104.768C88.2939 104.768 88.5286 104.821 88.6993 104.928C88.8913 105.035 88.9873 105.184 88.9873 105.376C88.9873 105.461 88.9553 105.589 88.8913 105.76C87.4619 108.896 86.5339 111.744 86.1073 114.304L85.9473 115.168C85.7766 116.064 85.6913 116.747 85.6913 117.216C85.6913 117.451 85.7019 117.621 85.7233 117.728C85.9793 118.816 86.3953 119.328 86.9713 119.264C87.2059 119.243 87.4833 119.04 87.8033 118.656C88.1446 118.272 88.3579 118.037 88.4433 117.952C89.4886 116.736 90.4379 115.413 91.2913 113.984C92.1446 112.533 93.1366 110.72 94.2673 108.544C94.8433 107.371 95.4726 106.165 96.1553 104.928ZM104.477 107.68C104.477 108.491 104.679 109.205 105.085 109.824C105.511 110.443 106.023 110.965 106.621 111.392C107.218 111.819 108.029 112.32 109.053 112.896C110.439 113.685 111.495 114.4 112.221 115.04C112.967 115.68 113.458 116.48 113.693 117.44C113.778 117.867 113.821 118.176 113.821 118.368C113.821 119.861 113.031 120.939 111.453 121.6C109.874 122.24 108.082 122.56 106.077 122.56C105.287 122.56 104.594 122.507 103.997 122.4C103.293 122.272 102.557 122.027 101.789 121.664C101.042 121.28 100.413 120.821 99.9005 120.288C99.4098 119.733 99.1645 119.168 99.1645 118.592C99.1645 117.696 99.8578 116.875 101.245 116.128C101.629 115.936 102.002 115.84 102.365 115.84C102.706 115.84 102.983 115.915 103.197 116.064C103.431 116.213 103.549 116.395 103.549 116.608C103.549 116.992 103.239 117.365 102.621 117.728C102.493 117.792 102.429 117.888 102.429 118.016C102.429 118.272 102.631 118.581 103.036 118.944C103.442 119.307 103.762 119.552 103.997 119.68C104.637 120.043 105.661 120.267 107.069 120.352C107.239 120.373 107.538 120.384 107.965 120.384C108.733 120.384 109.351 120.256 109.821 120C110.29 119.744 110.493 119.275 110.429 118.592C110.343 117.675 109.415 116.64 107.645 115.488L106.429 114.72C105.319 114.037 104.402 113.44 103.677 112.928C102.973 112.395 102.365 111.765 101.853 111.04C101.341 110.293 101.085 109.461 101.085 108.544C101.085 107.968 101.191 107.392 101.405 106.816C101.874 105.429 102.749 104.363 104.029 103.616C105.309 102.848 106.685 102.464 108.157 102.464C109.671 102.464 110.941 102.848 111.965 103.616C113.01 104.384 113.533 105.472 113.533 106.88C113.533 107.328 113.469 107.808 113.341 108.32C113.255 108.704 112.935 109.035 112.381 109.312C111.826 109.589 111.303 109.728 110.813 109.728C110.514 109.728 110.279 109.664 110.109 109.536C109.959 109.408 109.927 109.227 110.013 108.992C110.141 108.544 110.205 108.096 110.205 107.648C110.205 106.944 110.023 106.347 109.661 105.856C109.298 105.365 108.765 105.024 108.061 104.832C107.677 104.747 107.389 104.704 107.197 104.704C106.429 104.704 105.778 104.981 105.245 105.536C104.733 106.069 104.477 106.784 104.477 107.68Z" fill="white"/>
</svg>
