<svg width="32" height="32" viewBox="0 0 32 32" fill="none" xmlns="http://www.w3.org/2000/svg">
<g clip-path="url(#clip0_1_75)">
<path fill-rule="evenodd" clip-rule="evenodd" d="M28.0904 0C30.2482 0 32 1.75188 32 3.90963V28.0904C32 30.2481 30.2481 32 28.0904 32H3.90963C1.75188 32 0 30.2481 0 28.0904V3.90963C0 1.75188 1.75181 0 3.90963 0H28.0904V0ZM28.4807 20.666C28.5381 19.802 28.4677 18.9771 28.2677 18.1872C28.0659 17.3961 27.7422 16.6907 27.2889 16.0741C26.8351 15.4563 26.2569 14.9628 25.5528 14.5983C24.8451 14.2291 24.0208 14.048 23.0788 14.048C22.2254 14.048 21.455 14.1995 20.7562 14.5007C20.0579 14.8036 19.4585 15.2179 18.9526 15.7428C18.4478 16.2646 18.0632 16.8871 17.7862 17.6085C17.5141 18.3274 17.375 19.105 17.375 19.9376C17.375 20.7985 17.5087 21.5933 17.7744 22.311C18.0431 23.0323 18.42 23.6466 18.9053 24.1661C19.4035 24.6839 19.9952 25.0803 20.7035 25.3638C21.4124 25.6431 22.2018 25.7851 23.0788 25.7851C24.3374 25.7851 25.4167 25.4969 26.3025 24.9188C27.199 24.3424 27.8553 23.3856 28.2884 22.0453H25.5948C25.4906 22.3897 25.2208 22.7217 24.7776 23.0323C24.3302 23.3436 23.7977 23.4992 23.1811 23.4992C22.3231 23.4992 21.6609 23.2744 21.2024 22.827C20.7432 22.3796 20.4461 21.5465 20.4461 20.666H28.4807ZM10.9523 25.4969C11.6423 25.4969 12.3151 25.4099 12.963 25.2383C13.6187 25.0661 14.2027 24.801 14.7122 24.4406C15.2176 24.0833 15.6276 23.6199 15.9288 23.0483C16.2276 22.4832 16.3768 21.8122 16.3768 21.0322C16.3768 20.0701 16.1477 19.2499 15.6809 18.5641C15.2164 17.8831 14.5146 17.4043 13.5696 17.1321C14.2637 16.8031 14.7838 16.3801 15.1376 15.8641C15.4897 15.3469 15.6649 14.7001 15.6649 13.9261C15.6649 13.2107 15.5471 12.6054 15.3134 12.1219C15.0731 11.6314 14.7376 11.242 14.3092 10.9491C13.8737 10.6562 13.3595 10.4426 12.7559 10.3147C12.1494 10.1828 11.4854 10.1195 10.7499 10.1195H3.5V25.4969H10.9523ZM10.5665 18.6434C11.2949 18.6434 11.8872 18.8109 12.3322 19.1482C12.7754 19.4896 12.9991 20.0529 12.9991 20.8452C12.9991 21.2494 12.9334 21.5844 12.7968 21.8424C12.6606 22.1015 12.4725 22.3063 12.2464 22.4554C12.0192 22.6104 11.7511 22.7157 11.4482 22.7814C11.1499 22.8483 10.8328 22.8779 10.4996 22.8779H6.88531V18.6434H10.5665ZM24.7167 16.9765C24.3528 16.5747 23.7379 16.3569 22.987 16.3569C22.4982 16.3569 22.0941 16.4392 21.7698 16.6067C21.4526 16.7724 21.1935 16.9777 20.9953 17.2203C20.7976 17.4664 20.6639 17.7268 20.5852 18.0049C20.5071 18.2759 20.4597 18.5215 20.4461 18.7387H25.4214C25.3486 17.9588 25.0818 17.3819 24.7167 16.9765ZM10.0534 12.7391C10.3535 12.7391 10.6453 12.7604 10.9245 12.8148C11.2079 12.8639 11.4529 12.9539 11.6695 13.0847C11.8872 13.2107 12.0606 13.39 12.1914 13.6196C12.3174 13.8492 12.3796 14.1451 12.3796 14.5024C12.3796 15.1474 12.1914 15.6167 11.8021 15.9013C11.4086 16.1901 10.9115 16.3321 10.3121 16.3321H6.88531V12.7391H10.0534ZM26.0534 12.6687V11.1514H19.8201V12.6687H26.0534Z" fill="#C77E98"/>
</g>
<defs>
<clipPath id="clip0_1_75">
<rect width="32" height="32" fill="white"/>
</clipPath>
</defs>
</svg>
