<svg width="32" height="32" viewBox="0 0 32 32" fill="none" xmlns="http://www.w3.org/2000/svg">
<path d="M24 0H8C3.58173 0 0 3.58173 0 8V24C0 28.4183 3.58173 32 8 32H24C28.4183 32 32 28.4183 32 24V8C32 3.58173 28.4183 0 24 0ZM23.1333 8.79347L19.1791 16.1588C18.9275 16.6239 19.2747 17.1999 19.8033 17.1999H23.1333V22.7333H16.039C15.7817 22.7333 15.5457 22.8785 15.4239 23.1046L13.363 26.9333H9.2V22.7662L13.1469 15.4209C13.3983 14.9558 13.0439 14.4 12.5154 14.4H9.2V8.8H16.2796C16.537 8.8 16.7733 8.65487 16.895 8.4284L18.9559 4.6H23.1333V8.79347Z" fill="#C77E98"/>
</svg>
