<svg width="32" height="32" viewBox="0 0 32 32" fill="none" xmlns="http://www.w3.org/2000/svg">
<path d="M28.0022 31.999H3.98701C3.46129 32.0107 2.93877 31.9153 2.45191 31.7187C1.96505 31.5221 1.52427 31.2285 1.15694 30.8563C0.779674 30.4864 0.482648 30.0443 0.28403 29.557C0.0854123 29.0697 -0.0106209 28.5475 0.00180555 28.0222V4.00095C-0.0144911 3.47176 0.0796758 2.94494 0.278425 2.45338C0.477175 1.96182 0.776238 1.51608 1.15694 1.144C1.52427 0.77174 1.96505 0.478195 2.45191 0.281603C2.93877 0.0850106 3.46129 -0.0104281 3.98701 0.00121731H28.0022C28.5298 -0.0120086 29.0545 0.0826607 29.5435 0.279299C30.0325 0.475938 30.4751 0.770313 30.8438 1.144C31.2202 1.5121 31.5167 1.95226 31.7154 2.43758C31.914 2.9229 32.0105 3.4432 31.9989 3.96666V27.965C32.0114 28.4903 31.9153 29.0126 31.7167 29.4999C31.5181 29.9872 31.2211 30.4293 30.8438 30.7991C30.4802 31.1832 30.0397 31.4881 29.5505 31.6947C29.0613 31.9013 28.534 32.0049 28.0022 31.999ZM26.3965 15.2802C26.2626 12.7159 25.1795 10.29 23.3539 8.4649C21.5282 6.63979 19.0875 5.54305 16.4971 5.38371H15.2611C12.6872 5.55513 10.2653 6.65091 8.45074 8.46498C6.63621 10.2791 5.55407 12.6864 5.40782 15.2345V16.503C6.17791 22.3311 9.46233 25.6071 15.2611 26.3309H16.5202C19.0961 26.1702 21.5234 25.0816 23.3432 23.2707C25.1629 21.4599 26.2492 19.0523 26.3965 16.503V15.2802ZM9.24285 21.8283C7.70098 20.1865 6.87151 18.0118 6.93259 15.7716V15.6116C9.97055 15.631 12.9948 15.2075 15.908 14.3545H16.0004C16.2203 14.886 16.5117 15.3857 16.8667 15.8401C13.6772 16.8587 10.9688 18.9861 9.24285 21.8283ZM15.3766 12.8803C12.7031 13.6424 9.93429 14.0272 7.15207 14.0231C7.41871 12.6828 7.99834 11.4226 8.84469 10.3433C9.69105 9.26388 10.7807 8.39515 12.0267 7.8064C13.2396 9.43358 14.358 11.1276 15.3766 12.8803ZM19.3849 24.0682C18.1649 24.7712 16.7877 25.1638 15.3766 25.2109C14.434 25.1899 13.5061 24.976 12.6512 24.5827C11.7963 24.1893 11.0331 23.625 10.4095 22.9254C11.9764 20.2885 14.4739 18.3184 17.4212 17.3943C18.3135 19.5436 18.9718 21.7809 19.3849 24.0682ZM17.1555 12.3889C16.4393 11.1014 15.3342 9.35677 13.8403 7.15502C14.6133 6.95512 15.4093 6.85524 16.2083 6.8579C17.243 6.8555 18.268 7.05629 19.2237 7.44862C20.1794 7.84095 21.047 8.41702 21.776 9.14345C20.5758 10.6344 18.974 11.7595 17.1555 12.3889ZM24.8602 15.8173C23.5029 15.5434 22.1217 15.4018 20.7364 15.3945C20.0366 15.3903 19.3376 15.4399 18.6456 15.543C18.5763 15.3487 18.4377 15.0402 18.2413 14.6402C18.0889 14.3568 17.9576 14.0627 17.8486 13.7603C19.7847 13.044 21.4972 11.8383 22.8156 10.2634C24.1149 11.8127 24.8331 13.7585 24.8487 15.7716L24.8602 15.8173ZM20.9212 23.3253C20.4868 21.1691 19.9118 19.0429 19.2001 16.9601C19.8923 16.8574 20.591 16.804 21.2909 16.8001C22.4684 16.7962 23.6387 16.9815 24.7563 17.3486C24.5662 18.5472 24.126 19.6934 23.4638 20.7145C22.8015 21.7356 21.9317 22.6092 20.9097 23.2796L20.9212 23.3253Z" fill="#C77E98"/>
</svg>
